<svg xmlns="http://www.w3.org/2000/svg" xmlns:xlink="http://www.w3.org/1999/xlink" width="177" height="60" viewBox="0 0 177 60">
  <defs>
    <rect id="a" width="178.125" height="60"/>
  </defs>
  <g fill="none" fill-rule="evenodd">
    <rect width="178.125" height="60"/>
    <mask id="b" fill="white">
      <use xlink:href="#a"/>
    </mask>
    <g mask="url(#b)">
      <rect width="5.687" height="38.612" x="170.743" y="5.55" fill="#FFFFFF"/>
      <path fill="#FFFFFF" d="M164.596875 44.161875L158.91 44.161875 158.91 16.8 164.596875 16.8 164.596875 44.161875zM161.754375 4.591875C163.873125 4.591875 165.5925 6.31125 165.5925 8.43 165.5925 10.54875 163.873125 12.27 161.754375 12.27 159.635625 12.27 157.914375 10.54875 157.914375 8.43 157.914375 6.31125 159.635625 4.591875 161.754375 4.591875zM152.765625 44.161875L147.174375 44.161875 147.174375 41.169375C145.171875 43.438125 141.643125 44.863125 138.324375 44.863125 130.385625 44.863125 123.94125 38.41875 123.94125 30.48 123.94125 22.543125 130.385625 16.096875 138.324375 16.096875 141.643125 16.096875 144.98625 17.3475 147.174375 19.558125L147.174375 16.8 152.765625 16.8 152.765625 44.161875zM138.50625 21.845625C143.4 21.845625 147.25125 25.348125 147.25125 30.48 147.25125 35.61375 143.4 39.14625 138.50625 39.14625 133.610625 39.14625 129.890625 35.375625 129.890625 30.48 129.890625 25.58625 133.610625 21.845625 138.50625 21.845625zM82.201875 44.161875L76.6125 44.161875 76.6125 16.8 82.201875 16.8 82.201875 18.710625C83.443125 17.544375 85.77 16.1025 88.99875 16.096875 92.964375 16.096875 95.92125 17.765625 97.948125 20.450625 100.164375 17.79375 103.816875 16.096875 107.540625 16.096875 114.525 16.096875 119.285625 20.814375 119.285625 28.164375L119.285625 44.161875 113.69625 44.161875 113.69625 28.164375C113.69625 24.5925 110.79 21.688125 107.22 21.688125 103.648125 21.688125 100.74375 24.5925 100.74375 28.164375L100.74375 44.161875 95.154375 44.161875 95.154375 28.164375C95.154375 24.5925 92.248125 21.688125 88.678125 21.688125 85.10625 21.688125 82.201875 24.5925 82.201875 28.164375L82.201875 44.161875z"/>
      <path fill="#FF9E00" fill-rule="nonzero" d="M39.024375,30 C39.024375,34.97625 34.97625,39.024375 30,39.024375 C25.02375,39.024375 20.975625,34.97625 20.975625,30 C20.975625,25.02375 25.02375,20.975625 30,20.975625 C34.97625,20.975625 39.024375,25.02375 39.024375,30 M30,3.10862447e-15 C13.45875,3.10862447e-15 0,13.45875 0,30 C0,46.54125 13.45875,60 30,60 C36.06,60 41.904375,58.19625 46.899375,54.781875 L46.985625,54.721875 L42.943125,50.023125 L42.875625,50.068125 C39.03,52.54125 34.576875,53.85 30,53.85 C16.84875,53.85 6.15,43.15125 6.15,30 C6.15,16.84875 16.84875,6.15 30,6.15 C43.15125,6.15 53.85,16.84875 53.85,30 C53.85,31.704375 53.660625,33.429375 53.2875,35.12625 C52.53375,38.221875 50.36625,39.170625 48.73875,39.045 C47.101875,38.911875 45.1875,37.745625 45.174375,34.891875 L45.174375,32.716875 L45.174375,30 C45.174375,21.631875 38.368125,14.825625 30,14.825625 C21.631875,14.825625 14.825625,21.631875 14.825625,30 C14.825625,38.368125 21.631875,45.174375 30,45.174375 C34.065,45.174375 37.876875,43.584375 40.75125,40.695 C42.421875,43.295625 45.14625,44.926875 48.245625,45.174375 C48.511875,45.196875 48.78375,45.208125 49.05375,45.208125 C51.234375,45.208125 53.398125,44.47875 55.141875,43.153125 C56.94,41.788125 58.2825,39.81375 59.025,37.441875 C59.143125,37.059375 59.360625,36.181875 59.3625,36.17625 L59.368125,36.144375 C59.805,34.24125 60,32.34375 60,30 C60,13.45875 46.54125,-3.55271368e-15 30,-3.55271368e-15"/>
    </g>
  </g>
</svg>
