<svg width="575" height="100" viewBox="0 0 575 100" fill="none" xmlns="http://www.w3.org/2000/svg">
<g clip-path="url(#clip0_2_4)">
<path d="M174.322 62.0419C174.322 69.6335 167.254 75.1309 157.306 75.1309H134.008V28.0105H156.521C166.207 28.0105 173.013 33.2461 173.013 40.576C173.013 45.5498 170.395 48.6911 166.469 50.5236C170.657 52.0943 174.322 56.2828 174.322 62.0419ZM144.217 36.6493V46.8587H156.259C159.924 46.8587 162.28 44.7644 162.28 41.8849C162.28 39.0053 159.662 36.6493 156.259 36.6493H144.217ZM157.306 66.4922C161.233 66.4922 164.113 64.1362 164.113 60.733C164.113 57.3299 161.495 54.9739 157.306 54.9739H144.217V66.4922H157.306Z" fill="black"/>
<path d="M212.804 74.8691L196.574 56.2828H193.956V74.8691H183.484V28.0105H193.956V46.0733H196.574L212.28 28.0105H224.584L204.95 50.5236L226.416 74.8691H212.804Z" fill="black"/>
<path d="M226.417 51.5709C226.417 37.4348 236.888 27.2253 251.547 27.2253C266.207 27.2253 276.678 37.4348 276.678 51.5709C276.678 65.707 266.207 75.9164 251.547 75.9164C236.888 75.9164 226.417 65.707 226.417 51.5709ZM265.684 51.5709C265.684 42.6704 259.924 36.6494 251.547 36.6494C243.17 36.6494 237.411 42.6704 237.411 51.5709C237.411 60.4714 243.17 66.4924 251.547 66.4924C259.924 66.4924 265.684 60.4714 265.684 51.5709Z" fill="black"/>
<path d="M316.731 28.0105H327.202V74.8691H316.731V56.021H295.788V74.8691H285.317V28.0105H295.788V46.5969H316.731V28.0105Z" fill="black"/>
<path d="M349.715 74.8691V37.4346H333.484V28.0105H376.155V37.4346H359.924V74.8691H349.715Z" fill="black"/>
<path d="M421.181 48.6913V74.8693H413.589L411.495 67.5395C409.139 71.4662 404.165 75.9164 396.573 75.9164C387.149 75.9164 380.343 69.6337 380.343 60.995C380.343 52.3562 387.149 46.3353 401.024 46.3353H411.233C410.71 40.3143 407.568 36.1259 401.809 36.1259C397.097 36.1259 393.956 38.7437 392.385 41.6232L382.961 40.0526C385.317 31.9374 393.432 27.2253 402.333 27.2253C413.851 27.2253 421.181 35.0787 421.181 48.6913ZM410.971 54.4505H401.285C393.432 54.4505 390.814 57.0683 390.814 60.4714C390.814 64.3981 393.956 67.0159 399.191 67.0159C405.998 67.0159 410.971 62.0421 410.971 54.4505Z" fill="black"/>
<path d="M461.495 74.8691L445.265 56.2828H442.647V74.8691H432.176V28.0105H442.647V46.0733H445.265L460.971 28.0105H473.275L453.642 50.5236L475.108 74.8691H461.495Z" fill="black"/>
<path d="M493.956 74.8691V37.4346H477.725V28.0105H520.396V37.4346H504.165V74.8691H493.956Z" fill="black"/>
<path d="M572.751 54.4505H535.055C536.102 61.7803 541.338 66.4924 549.191 66.4924C554.689 66.4924 558.877 64.1363 561.233 60.7332L570.919 62.3039C567.516 71.2044 558.354 75.9164 548.406 75.9164C534.27 75.9164 524.06 65.707 524.06 51.5709C524.06 37.4348 534.27 27.2253 548.406 27.2253C562.542 27.2253 572.751 37.4348 572.751 51.0473C573.013 52.3562 572.751 53.4034 572.751 54.4505ZM535.84 46.3353H561.757C559.924 40.5761 555.212 36.3876 548.668 36.3876C542.385 36.1259 537.411 40.3143 535.84 46.3353Z" fill="black"/>
<path d="M0.5 48C0.5 25.3726 0.5 14.0589 7.52944 7.02944C14.5589 0 25.8726 0 48.5 0H52.5C75.1274 0 86.4411 0 93.4706 7.02944C100.5 14.0589 100.5 25.3726 100.5 48V52C100.5 74.6274 100.5 85.9411 93.4706 92.9706C86.4411 100 75.1274 100 52.5 100H48.5C25.8726 100 14.5589 100 7.52944 92.9706C0.5 85.9411 0.5 74.6274 0.5 52V48Z" fill="#0077FF"/>
<path d="M53.7084 72.042C30.9167 72.042 17.9168 56.417 17.3752 30.417H28.7918C29.1668 49.5003 37.5833 57.5836 44.2499 59.2503V30.417H55.0003V46.8752C61.5836 46.1669 68.4995 38.667 70.8328 30.417H81.5831C79.7914 40.5837 72.2914 48.0836 66.9581 51.1669C72.2914 53.6669 80.8335 60.2086 84.0835 72.042H72.2498C69.7082 64.1253 63.3753 58.0003 55.0003 57.1669V72.042H53.7084Z" fill="white"/>
</g>
<defs>
<clipPath id="clip0_2_4">
<rect width="574" height="100" fill="white" transform="translate(0.5)"/>
</clipPath>
</defs>
</svg>
