<svg id="Слой_1" data-name="Слой 1" xmlns="http://www.w3.org/2000/svg" viewBox="0 0 1190.06 231.14"><path d="M767,488V589.68H752.85l-2-6.24c-.73-2.38-1.83-5.32-2.75-8.62a44,44,0,0,1-5.87,5.87,30.84,30.84,0,0,1-7,4.77,43.3,43.3,0,0,1-8.07,3.48,29.3,29.3,0,0,1-9,1.47h-1.84a42.17,42.17,0,0,1-4.77-.18,43.45,43.45,0,0,1-4.95-.74,35.15,35.15,0,0,1-6.05-1.65c-2-.73-3.85-1.65-5.87-2.57a47.92,47.92,0,0,1-10.27-7,59.56,59.56,0,0,1-9-10.09,40.47,40.47,0,0,1-6.23-13.39,67.54,67.54,0,0,1-2-17.11,56.43,56.43,0,0,1,2-15.4,40.48,40.48,0,0,1,6.29-12.6,53.31,53.31,0,0,1,9-10.09,45.7,45.7,0,0,1,10.45-7c2.09-1,4.24-1.81,6.42-2.56,2-.74,4.22-1.29,6.24-1.84l4.4-.73a35.9,35.9,0,0,1,4.4-.19H718a6.33,6.33,0,0,1,1.84.19,36,36,0,0,1,9,1.83,34.48,34.48,0,0,1,7.88,3.49q3.59,2.49,6.61,5a30.77,30.77,0,0,1,5.13,5.68v-.91a4.6,4.6,0,0,1,.18-1.47V488ZM747.9,526a35.72,35.72,0,0,0-7.15-11,32.46,32.46,0,0,0-10.59-7.56,32,32,0,0,0-12.66-2.57A31,31,0,0,0,705,507.28a32.19,32.19,0,0,0-10.64,7.52,40.51,40.51,0,0,0-7.15,11,36.84,36.84,0,0,0,0,26,35.43,35.43,0,0,0,7.15,11A32.11,32.11,0,0,0,705,570.32a32.59,32.59,0,0,0,25,.18A32.07,32.07,0,0,0,740.61,563,36.11,36.11,0,0,0,748,552a36.87,36.87,0,0,0,0-26.05Z" transform="translate(-374.07 -417.6)"/><path d="M790.63,530.94a41.78,41.78,0,0,1,1.84-8.62,74,74,0,0,1,2.93-7.71,58.52,58.52,0,0,1,4-6.78,51.51,51.51,0,0,1,9.17-9.72,48.35,48.35,0,0,1,11-6.61A57.78,57.78,0,0,1,830,488.2a49.14,49.14,0,0,1,9.9-1.1h1.83a30.18,30.18,0,0,1,9,1.28,50.11,50.11,0,0,1,8.44,3.67,86.86,86.86,0,0,1,7.33,5,46.5,46.5,0,0,1,5.87,5.87l1.84-6.23c.73-2.39,1.83-5.32,2.93-8.81h13.57v142h-18V577a4,4,0,0,0-.18-1.46,52.87,52.87,0,0,1-5.32,5.86,62.8,62.8,0,0,1-6.6,5.14,29.48,29.48,0,0,1-8.08,3.67,35.12,35.12,0,0,1-9.17,1.83,47.58,47.58,0,0,1-11.37-.73,68.92,68.92,0,0,1-12.1-3.67,44.29,44.29,0,0,1-11.37-6.79,55.9,55.9,0,0,1-9.17-9.53,53.78,53.78,0,0,1-4-6.42c-1.1-2.39-2-4.77-2.93-7.16a39,39,0,0,1-1.84-8.07,44.76,44.76,0,0,1-.73-8.8A56.7,56.7,0,0,1,790.63,530.94Zm19.26,21.45a38.93,38.93,0,0,0,7.34,11.19,28.54,28.54,0,0,0,10.82,7.52,33.33,33.33,0,0,0,25.68,0,28.84,28.84,0,0,0,10.82-7.52,39.32,39.32,0,0,0,7.33-11.19,37.75,37.75,0,0,0,0-26.41,39.69,39.69,0,0,0-7.33-11.18,29,29,0,0,0-10.82-7.52,33.42,33.42,0,0,0-25.68,0,29.7,29.7,0,0,0-10.64,7.52A35.84,35.84,0,0,0,810.07,526,36.52,36.52,0,0,0,809.89,552.39Z" transform="translate(-374.07 -417.6)"/><path d="M1010.35,589.68h-14.3l-4.22-15.78v-.55a45.83,45.83,0,0,1-5.32,6.61,28.72,28.72,0,0,1-6.6,4.95,37.51,37.51,0,0,1-7.89,3.48,33.46,33.46,0,0,1-8.8,1.65,10.67,10.67,0,0,1-2.39.19h-2.38a42.84,42.84,0,0,1-13.94-2.2,33.39,33.39,0,0,1-11.92-6.79,32,32,0,0,1-9-13.57c-2-5.5-2.93-12.11-2.93-19.63V488h18.5v60.14a41,41,0,0,0,1.47,11.55,16.37,16.37,0,0,0,4.77,7.34,23.31,23.31,0,0,0,7,4,26.24,26.24,0,0,0,8.62,1.29,36.33,36.33,0,0,0,12.84-2.2,24.56,24.56,0,0,0,9.9-6.79,32.57,32.57,0,0,0,6.42-9.9,31.92,31.92,0,0,0,2-11.93V488h18.34C1010.35,538.82,1010.35,572.75,1010.35,589.68Z" transform="translate(-374.07 -417.6)"/><path d="M1129.57,488V589.68h-14.12l-2-6.24c-.74-2.38-1.84-5.32-2.75-8.62a44,44,0,0,1-5.87,5.87,31.17,31.17,0,0,1-7,4.77,43.3,43.3,0,0,1-8.07,3.48,29.65,29.65,0,0,1-9,1.47h-1.83a42.17,42.17,0,0,1-4.77-.18,44.31,44.31,0,0,1-5-.74,35.26,35.26,0,0,1-6.06-1.65c-2-.73-3.85-1.65-5.87-2.57a48.17,48.17,0,0,1-10.27-7,59.56,59.56,0,0,1-9-10.09,40.49,40.49,0,0,1-6.24-13.39,67.64,67.64,0,0,1-2-17.06,56.82,56.82,0,0,1,2-15.4,40.44,40.44,0,0,1,6.24-12.66,53.31,53.31,0,0,1,9-10.09,45.55,45.55,0,0,1,10.46-7c2.09-1,4.24-1.81,6.42-2.56,2-.74,4.22-1.29,6.23-1.84l4.4-.73a36,36,0,0,1,4.41-.19h1.65a6.3,6.3,0,0,1,1.83.19,35.55,35.55,0,0,1,9,1.83,35.19,35.19,0,0,1,7.89,3.49q3.57,2.49,6.6,5a30.42,30.42,0,0,1,5.13,5.68v-.91a4.34,4.34,0,0,1,.19-1.47V488Zm-19.08,38a35.72,35.72,0,0,0-7.15-11,32.4,32.4,0,0,0-10.64-7.52,32,32,0,0,0-12.65-2.57,31,31,0,0,0-12.47,2.39,32.19,32.19,0,0,0-10.64,7.52,40.54,40.54,0,0,0-7.16,11,36.84,36.84,0,0,0,0,26,35.45,35.45,0,0,0,7.16,11,32,32,0,0,0,10.64,7.52,32.56,32.56,0,0,0,24.94.18,32.11,32.11,0,0,0,10.64-7.52,36.08,36.08,0,0,0,7.33-11,36.76,36.76,0,0,0,0-26Z" transform="translate(-374.07 -417.6)"/><path d="M1206.41,505.26h-4a30.38,30.38,0,0,0-12.47,2.57,25.94,25.94,0,0,0-9.17,7,30.33,30.33,0,0,0-5.69,11.18,55.52,55.52,0,0,0-2,15.59v48.08h-17.6V488h13.2l4.22,15.22a54.45,54.45,0,0,1,5.5-5.87,42.93,42.93,0,0,1,6.6-4.58,61.86,61.86,0,0,1,7.16-3.3,26.7,26.7,0,0,1,7.7-1.66,6.33,6.33,0,0,1,1.84-.18,8.12,8.12,0,0,1,2.2-.18h2.38a2.81,2.81,0,0,1,1.28.18Z" transform="translate(-374.07 -417.6)"/><path d="M1231.54,448.22h18v16.87h-18Zm0,39.61h18V589.68h-18V487.83Z" transform="translate(-374.07 -417.6)"/><path d="M1373,589.68h-14.31l-4.22-15.78v-.55a45.83,45.83,0,0,1-5.32,6.61,28.23,28.23,0,0,1-6.6,4.95,37.43,37.43,0,0,1-7.88,3.48,33.53,33.53,0,0,1-8.81,1.65,10.58,10.58,0,0,1-2.38.19H1321a42.84,42.84,0,0,1-13.94-2.2,33.54,33.54,0,0,1-11.92-6.79,32,32,0,0,1-9-13.57c-2-5.5-2.94-12.11-2.94-19.63V488h18.52v60.14a41,41,0,0,0,1.47,11.55,16.37,16.37,0,0,0,4.77,7.34,23.43,23.43,0,0,0,7,4,26.24,26.24,0,0,0,8.62,1.29,36.33,36.33,0,0,0,12.84-2.2,24.56,24.56,0,0,0,9.9-6.79,32.57,32.57,0,0,0,6.42-9.9,31.92,31.92,0,0,0,2-11.93V488h18.38C1373,538.82,1373,572.75,1373,589.68Z" transform="translate(-374.07 -417.6)"/><path d="M1564.06,529.29v60.15h-18.53V529.29a41.81,41.81,0,0,0-1.46-11.56,16.56,16.56,0,0,0-4.77-7.34,23.82,23.82,0,0,0-7-3.85,26.28,26.28,0,0,0-8.62-1.28,35.28,35.28,0,0,0-12.66,2.2,26.24,26.24,0,0,0-9.9,6.6,36.9,36.9,0,0,0-6.42,9.91,30.25,30.25,0,0,0-2.2,11.73v54H1474V529.1a41.74,41.74,0,0,0-1.46-11.55,16.65,16.65,0,0,0-4.77-7.34,23.82,23.82,0,0,0-7-3.85,26.58,26.58,0,0,0-8.62-1.28,35.77,35.77,0,0,0-12.84,2.2,24.6,24.6,0,0,0-9.91,6.78A32.64,32.64,0,0,0,1423,524a31.9,31.9,0,0,0-2,11.92v53.79h-18.3V488h14.12l4.4,15.59V504a45.26,45.26,0,0,1,5.32-6.41,28.79,28.79,0,0,1,6.6-5,39.69,39.69,0,0,1,7.89-3.48,36.36,36.36,0,0,1,9-1.84,11.82,11.82,0,0,1,2.38-.18h2.38a47.79,47.79,0,0,1,9,.92,31.78,31.78,0,0,1,8.07,2.57,33.47,33.47,0,0,1,8.62,5.68,41.74,41.74,0,0,1,6.42,8.25,37,37,0,0,1,7-7.15,35.68,35.68,0,0,1,8.44-5.13,91.86,91.86,0,0,1,9.17-3.31,44.16,44.16,0,0,1,9.9-1.65,42.08,42.08,0,0,1,4.77-.18,44.28,44.28,0,0,1,12.11,1.65,39.4,39.4,0,0,1,13.75,7.52,31.62,31.62,0,0,1,9,13.39,54.45,54.45,0,0,1,3.12,19.26Z" transform="translate(-374.07 -417.6)"/><path d="M392.55,417.6v95a82.52,82.52,0,0,1,93.7,135.85q4.33.33,8.76.29A101.46,101.46,0,0,0,595.46,548.29V417.6Z" transform="translate(-374.07 -417.6)"/><circle cx="64.5" cy="163.3" r="64.5"/></svg>