<svg xmlns="http://www.w3.org/2000/svg" viewBox="0 0 1208.78 245.96"><defs><style>.cls-1{fill:#ee5a24;}.cls-2{fill:#48dbfb;stroke:#fff;stroke-miterlimit:10;stroke-width:18px;}</style></defs><path class="cls-1" d="M380.46,439.52V570.24a101.46,101.46,0,0,0,202.91,0V439.52Z" transform="translate(-344.12 -439.52)"/><circle class="cls-2" cx="82.56" cy="163.4" r="73.56"/><path d="M755.81,510.34V612H741.69l-2-6.24c-.73-2.38-1.83-5.32-2.75-8.62a44,44,0,0,1-5.87,5.87,31,31,0,0,1-7,4.77,43.5,43.5,0,0,1-8.07,3.48,29.58,29.58,0,0,1-9,1.47h-1.84a42.35,42.35,0,0,1-4.77-.18,46.94,46.94,0,0,1-4.95-.74,36.08,36.08,0,0,1-6.05-1.65c-2-.73-3.85-1.65-5.87-2.57a48.14,48.14,0,0,1-10.27-7,60.09,60.09,0,0,1-9-10.09,40.78,40.78,0,0,1-6.23-13.39A67.72,67.72,0,0,1,656,560a56.7,56.7,0,0,1,2-15.4A40.63,40.63,0,0,1,664.29,532a53.47,53.47,0,0,1,9-10.09,45.47,45.47,0,0,1,10.45-7,68.12,68.12,0,0,1,6.42-2.56c2-.74,4.22-1.29,6.24-1.84l4.4-.73a34.17,34.17,0,0,1,4.4-.19h1.65a6.07,6.07,0,0,1,1.84.19,35.34,35.34,0,0,1,9,1.83,34.24,34.24,0,0,1,7.88,3.49q3.59,2.48,6.61,4.95a30.53,30.53,0,0,1,5.13,5.68v-.91a4.64,4.64,0,0,1,.18-1.47v-13Zm-19.07,38a35.49,35.49,0,0,0-7.15-11A32.31,32.31,0,0,0,719,529.78a31.84,31.84,0,0,0-12.66-2.57,30.88,30.88,0,0,0-12.47,2.39,32.16,32.16,0,0,0-10.64,7.52,40.48,40.48,0,0,0-7.15,11,36.83,36.83,0,0,0,0,26,35.67,35.67,0,0,0,7.15,11,32.31,32.31,0,0,0,10.64,7.52,32.62,32.62,0,0,0,24.95.18,32.17,32.17,0,0,0,10.63-7.52,36.11,36.11,0,0,0,7.34-11,36.83,36.83,0,0,0,0-26.05Z" transform="translate(-344.12 -439.52)"/><path d="M779.47,553.26a42.2,42.2,0,0,1,1.84-8.62,73.39,73.39,0,0,1,2.93-7.71,58.92,58.92,0,0,1,4-6.78,51.11,51.11,0,0,1,9.17-9.72,48.27,48.27,0,0,1,11-6.61,57.72,57.72,0,0,1,10.46-3.3,48.3,48.3,0,0,1,9.9-1.1h1.83a29.8,29.8,0,0,1,9,1.28,49.56,49.56,0,0,1,8.44,3.67,84.65,84.65,0,0,1,7.33,5,45.19,45.19,0,0,1,5.87,5.87l1.84-6.23c.73-2.39,1.83-5.32,2.93-8.81h13.57v142h-18V599.29a4.07,4.07,0,0,0-.18-1.46,52.94,52.94,0,0,1-5.32,5.86,62.91,62.91,0,0,1-6.6,5.14,29.59,29.59,0,0,1-8.08,3.67,35.43,35.43,0,0,1-9.17,1.83,47.82,47.82,0,0,1-11.37-.73,69.86,69.86,0,0,1-12.1-3.67,44.41,44.41,0,0,1-11.37-6.79,56.54,56.54,0,0,1-9.17-9.53,54.45,54.45,0,0,1-4-6.42c-1.1-2.39-2-4.77-2.93-7.16a39.58,39.58,0,0,1-1.84-8.07,45,45,0,0,1-.73-8.8A57.13,57.13,0,0,1,779.47,553.26Zm19.26,21.45a39.13,39.13,0,0,0,7.34,11.19,28.72,28.72,0,0,0,10.82,7.52,33.36,33.36,0,0,0,25.68,0,28.88,28.88,0,0,0,10.82-7.52,39.31,39.31,0,0,0,7.33-11.19,37.67,37.67,0,0,0,0-26.41,39.4,39.4,0,0,0-7.33-11.18,28.88,28.88,0,0,0-10.82-7.52,33.36,33.36,0,0,0-25.68,0,29.75,29.75,0,0,0-10.64,7.52,35.76,35.76,0,0,0-7.34,11.18,36.54,36.54,0,0,0-.18,26.41Z" transform="translate(-344.12 -439.52)"/><path d="M999.19,612h-14.3l-4.22-15.78v-.55a46.23,46.23,0,0,1-5.32,6.61,28.79,28.79,0,0,1-6.6,4.95,37.81,37.81,0,0,1-7.89,3.48,33.73,33.73,0,0,1-8.8,1.65,10.93,10.93,0,0,1-2.39.19h-2.38a42.93,42.93,0,0,1-13.94-2.2,33.56,33.56,0,0,1-11.92-6.79,32.05,32.05,0,0,1-9-13.57c-2-5.5-2.93-12.11-2.93-19.63v-60H928V570.5a41.1,41.1,0,0,0,1.47,11.55,16.48,16.48,0,0,0,4.77,7.34,23.63,23.63,0,0,0,7,4,26.42,26.42,0,0,0,8.62,1.29,36.51,36.51,0,0,0,12.84-2.2,24.6,24.6,0,0,0,9.9-6.79,32.71,32.71,0,0,0,6.42-9.9,31.94,31.94,0,0,0,2-11.93V510.34h18.34C999.19,561.14,999.19,595.07,999.19,612Z" transform="translate(-344.12 -439.52)"/><path d="M1118.41,510.34V612h-14.12l-2-6.24c-.74-2.38-1.84-5.32-2.75-8.62a44,44,0,0,1-5.87,5.87,31.24,31.24,0,0,1-7,4.77,44.08,44.08,0,0,1-8.07,3.48,29.7,29.7,0,0,1-9,1.47h-1.83a42.26,42.26,0,0,1-4.77-.18,46.94,46.94,0,0,1-5-.74,35.93,35.93,0,0,1-6.06-1.65c-2-.73-3.85-1.65-5.87-2.57a48.39,48.39,0,0,1-10.27-7,60,60,0,0,1-9-10.09,40.6,40.6,0,0,1-6.24-13.39,68.18,68.18,0,0,1-2-17.06,57.09,57.09,0,0,1,2-15.4,40.44,40.44,0,0,1,6.24-12.66,53.43,53.43,0,0,1,9-10.09,45.54,45.54,0,0,1,10.46-7,68.12,68.12,0,0,1,6.42-2.56c2-.74,4.22-1.29,6.23-1.84l4.4-.73a34.25,34.25,0,0,1,4.41-.19h1.65a6,6,0,0,1,1.83.19,35.26,35.26,0,0,1,9,1.83,34.51,34.51,0,0,1,7.89,3.49q3.57,2.48,6.6,4.95a29.85,29.85,0,0,1,5.13,5.68v-.91a4.41,4.41,0,0,1,.19-1.47v-13Zm-19.08,38a35.49,35.49,0,0,0-7.15-11,32.31,32.31,0,0,0-10.64-7.52,31.83,31.83,0,0,0-12.65-2.57,30.85,30.85,0,0,0-12.47,2.39,32.06,32.06,0,0,0-10.64,7.52,40.52,40.52,0,0,0-7.16,11,36.83,36.83,0,0,0,0,26,35.71,35.71,0,0,0,7.16,11,32.21,32.21,0,0,0,10.64,7.52,32.59,32.59,0,0,0,24.94.18,32.31,32.31,0,0,0,10.64-7.52,36.07,36.07,0,0,0,7.33-11,36.69,36.69,0,0,0,0-26.05Z" transform="translate(-344.12 -439.52)"/><path d="M1195.25,527.58h-4a30.3,30.3,0,0,0-12.47,2.57,25.84,25.84,0,0,0-9.17,7,30.41,30.41,0,0,0-5.69,11.18,55.66,55.66,0,0,0-2,15.59V612h-17.6V510.34h13.2l4.22,15.22a54.94,54.94,0,0,1,5.5-5.87,42.34,42.34,0,0,1,6.6-4.58,60.09,60.09,0,0,1,7.16-3.3,26.27,26.27,0,0,1,7.7-1.66,6.36,6.36,0,0,1,1.84-.18,7.68,7.68,0,0,1,2.2-.18h2.38a2.74,2.74,0,0,1,1.28.18Z" transform="translate(-344.12 -439.52)"/><path d="M1220.38,470.54h18v16.87h-18Zm0,39.61h18V612h-18V510.15Z" transform="translate(-344.12 -439.52)"/><path d="M1361.79,612h-14.31l-4.22-15.78v-.55a46.23,46.23,0,0,1-5.32,6.61,28.37,28.37,0,0,1-6.6,4.95,37.5,37.5,0,0,1-7.88,3.48,33.88,33.88,0,0,1-8.81,1.65,10.89,10.89,0,0,1-2.38.19h-2.39a42.93,42.93,0,0,1-13.94-2.2,33.65,33.65,0,0,1-11.92-6.79,32,32,0,0,1-9-13.57c-2-5.5-2.94-12.11-2.94-19.63v-60h18.52V570.5a41.1,41.1,0,0,0,1.47,11.55,16.48,16.48,0,0,0,4.77,7.34,23.76,23.76,0,0,0,7,4,26.42,26.42,0,0,0,8.62,1.29,36.43,36.43,0,0,0,12.84-2.2,24.6,24.6,0,0,0,9.9-6.79,32.71,32.71,0,0,0,6.42-9.9,31.94,31.94,0,0,0,2-11.93V510.34H1362C1361.79,561.14,1361.79,595.07,1361.79,612Z" transform="translate(-344.12 -439.52)"/><path d="M1552.9,551.61v60.15h-18.53V551.61a41.53,41.53,0,0,0-1.46-11.56,16.48,16.48,0,0,0-4.77-7.34,23.52,23.52,0,0,0-7-3.85,26,26,0,0,0-8.62-1.28,35.21,35.21,0,0,0-12.66,2.2,26.2,26.2,0,0,0-9.9,6.6,36.66,36.66,0,0,0-6.42,9.91,30.33,30.33,0,0,0-2.2,11.73V612h-18.53V551.42a41.5,41.5,0,0,0-1.46-11.55,16.56,16.56,0,0,0-4.77-7.34,23.52,23.52,0,0,0-7-3.85,26.42,26.42,0,0,0-8.62-1.28,35.51,35.51,0,0,0-12.84,2.2,24.58,24.58,0,0,0-9.91,6.78,32.59,32.59,0,0,0-6.41,9.91,31.89,31.89,0,0,0-2,11.92V612H1391.5V510.34h14.12l4.4,15.59v.36a44.49,44.49,0,0,1,5.32-6.41,28.55,28.55,0,0,1,6.6-5,38.89,38.89,0,0,1,7.89-3.48,35.7,35.7,0,0,1,9-1.84,11.43,11.43,0,0,1,2.38-.18h2.38a46.63,46.63,0,0,1,9,.92,31.49,31.49,0,0,1,8.07,2.57,33.2,33.2,0,0,1,8.62,5.68,41.36,41.36,0,0,1,6.42,8.25,37,37,0,0,1,7-7.15,35.59,35.59,0,0,1,8.44-5.13,91.09,91.09,0,0,1,9.17-3.31,43.77,43.77,0,0,1,9.9-1.65,42.26,42.26,0,0,1,4.77-.18,43.89,43.89,0,0,1,12.11,1.65,39.12,39.12,0,0,1,13.75,7.52,31.5,31.5,0,0,1,9,13.39,54.27,54.27,0,0,1,3.12,19.26Z" transform="translate(-344.12 -439.52)"/></svg>
