<svg id="Слой_1" data-name="Слой 1" xmlns="http://www.w3.org/2000/svg" viewBox="0 0 1208.85 262.96"><defs><style>.cls-1{fill:#ee5a24;}.cls-2{fill:#48dbfb;stroke:#fff;stroke-miterlimit:10;stroke-width:18px;}</style></defs><path class="cls-1" d="M391.62,425.7V556.42a101.46,101.46,0,0,0,202.91,0V425.7Z" transform="translate(-355.28 -408.7)"/><circle class="cls-2" cx="82.56" cy="180.4" r="73.56"/><path d="M748.65,461.51a4.6,4.6,0,0,0-.18,1.47v.91a30.77,30.77,0,0,0-5.13-5.68q-3-2.46-6.61-4.95a34.48,34.48,0,0,0-7.88-3.49,36,36,0,0,0-9-1.83,6.33,6.33,0,0,0-1.84-.19h-1.65a35.9,35.9,0,0,0-4.4.19l-4.4.73c-2,.55-4.24,1.1-6.24,1.84-2.18.75-4.33,1.6-6.42,2.56a45.7,45.7,0,0,0-10.45,7,53.31,53.31,0,0,0-9,10.09,40.48,40.48,0,0,0-6.29,12.6,56.43,56.43,0,0,0-2,15.4,67.54,67.54,0,0,0,2,17.11,40.47,40.47,0,0,0,6.23,13.39,59.56,59.56,0,0,0,9,10.09,47.92,47.92,0,0,0,10.27,7c2,.92,3.87,1.84,5.87,2.57A35.15,35.15,0,0,0,706.6,550a43.45,43.45,0,0,0,4.95.74,42.08,42.08,0,0,0,4.77.18h1.84a29.3,29.3,0,0,0,9-1.47,43.3,43.3,0,0,0,8.07-3.48,30.84,30.84,0,0,0,7-4.77,44,44,0,0,0,5.87-5.87c.92,3.3,2,6.24,2.75,8.62l2,6.24H767V448.5H748.65Zm-.7,51a36.11,36.11,0,0,1-7.34,11A32.07,32.07,0,0,1,730,531a32.59,32.59,0,0,1-25-.18,32.11,32.11,0,0,1-10.64-7.52,35.43,35.43,0,0,1-7.15-11,36.84,36.84,0,0,1,0-26,40.51,40.51,0,0,1,7.15-11A32.19,32.19,0,0,1,705,467.76a31,31,0,0,1,12.47-2.39,32,32,0,0,1,12.66,2.57,32.46,32.46,0,0,1,10.59,7.56,35.6,35.6,0,0,1,7.15,11l.05-.09A36.87,36.87,0,0,1,748,512.46Z" transform="translate(-355.28 -408.7)"/><path d="M874.24,457.17l-1.84,6.23a46.5,46.5,0,0,0-5.87-5.87,86.86,86.86,0,0,0-7.33-5,50.11,50.11,0,0,0-8.44-3.67,30.18,30.18,0,0,0-9-1.28h-1.83a49.14,49.14,0,0,0-9.9,1.1,57.78,57.78,0,0,0-10.46,3.3,48.35,48.35,0,0,0-11,6.61,51.51,51.51,0,0,0-9.17,9.72,58.52,58.52,0,0,0-4,6.78,74,74,0,0,0-2.93,7.71,41.78,41.78,0,0,0-1.84,8.62,56.7,56.7,0,0,0-.75,9.9,44.76,44.76,0,0,0,.73,8.8,39,39,0,0,0,1.84,8.07c.93,2.39,1.83,4.77,2.93,7.16a53.78,53.78,0,0,0,4,6.42,55.9,55.9,0,0,0,9.17,9.53,44.29,44.29,0,0,0,11.37,6.79,68.92,68.92,0,0,0,12.1,3.67,47.58,47.58,0,0,0,11.37.73,35.12,35.12,0,0,0,9.17-1.83,29.48,29.48,0,0,0,8.08-3.67,62.8,62.8,0,0,0,6.6-5.14,52.87,52.87,0,0,0,5.32-5.86,4,4,0,0,1,.18,1.46v52.91h18v-142H877.17C876.07,451.85,875,454.78,874.24,457.17Zm-2.36,55.7a39.32,39.32,0,0,1-7.33,11.19,28.84,28.84,0,0,1-10.82,7.52,33.33,33.33,0,0,1-25.68,0,28.54,28.54,0,0,1-10.82-7.52,38.93,38.93,0,0,1-7.34-11.19,36.52,36.52,0,0,1,.18-26.41,35.84,35.84,0,0,1,7.34-11.18,29.7,29.7,0,0,1,10.64-7.52,33.42,33.42,0,0,1,25.68,0,29,29,0,0,1,10.82,7.52,39.69,39.69,0,0,1,7.33,11.18A37.75,37.75,0,0,1,871.88,512.87Z" transform="translate(-355.28 -408.7)"/><path d="M992.18,502a31.92,31.92,0,0,1-2,11.93,32.76,32.76,0,0,1-6.42,9.9,24.56,24.56,0,0,1-9.9,6.79,36.33,36.33,0,0,1-12.84,2.2,26.24,26.24,0,0,1-8.62-1.29,23.31,23.31,0,0,1-7-4,16.37,16.37,0,0,1-4.77-7.34,41,41,0,0,1-1.47-11.55V448.52h-18.5v60c0,7.52.93,14.13,2.93,19.63a32,32,0,0,0,9,13.57,33.39,33.39,0,0,0,11.92,6.79,42.84,42.84,0,0,0,13.94,2.2h2.38a10.67,10.67,0,0,0,2.39-.19,33.46,33.46,0,0,0,8.8-1.65,37.51,37.51,0,0,0,7.89-3.48,28.72,28.72,0,0,0,6.6-4.95,45.83,45.83,0,0,0,5.32-6.61v.55l4.22,15.78h14.3c0-16.93,0-50.86.17-101.66H992.18Z" transform="translate(-355.28 -408.7)"/><path d="M1111.17,461.5A4.34,4.34,0,0,0,1111,463v.91a30.42,30.42,0,0,0-5.13-5.68q-3-2.46-6.6-4.95a35.19,35.19,0,0,0-7.89-3.49,35.55,35.55,0,0,0-9-1.83,6.3,6.3,0,0,0-1.83-.19h-1.65a36,36,0,0,0-4.41.19l-4.4.73c-2,.55-4.23,1.1-6.23,1.84-2.18.75-4.33,1.6-6.42,2.56a45.55,45.55,0,0,0-10.46,7,53.31,53.31,0,0,0-9,10.09,40.44,40.44,0,0,0-6.24,12.66,56.82,56.82,0,0,0-2,15.4,67.64,67.64,0,0,0,2,17.06,40.49,40.49,0,0,0,6.24,13.39,59.56,59.56,0,0,0,9,10.09,48.17,48.17,0,0,0,10.27,7c2,.92,3.87,1.84,5.87,2.57a35.26,35.26,0,0,0,6.06,1.65,44.31,44.31,0,0,0,5,.74,42.17,42.17,0,0,0,4.77.18h1.83a29.65,29.65,0,0,0,9-1.47,43.3,43.3,0,0,0,8.07-3.48,31.17,31.17,0,0,0,7-4.77,44,44,0,0,0,5.87-5.87c.91,3.3,2,6.24,2.75,8.62l2,6.24h14.12V448.5h-18.4Zm-.68,51a36.08,36.08,0,0,1-7.33,11,32.11,32.11,0,0,1-10.64,7.52,32.56,32.56,0,0,1-24.94-.18,32,32,0,0,1-10.64-7.52,35.45,35.45,0,0,1-7.16-11,36.84,36.84,0,0,1,0-26,40.54,40.54,0,0,1,7.16-11,32.19,32.19,0,0,1,10.64-7.52,31,31,0,0,1,12.47-2.39A32,32,0,0,1,1092.7,468a32.4,32.4,0,0,1,10.64,7.52,35.6,35.6,0,0,1,7.15,11v-.05A36.76,36.76,0,0,1,1110.49,512.5Z" transform="translate(-355.28 -408.7)"/><path d="M1203.9,448a8.12,8.12,0,0,0-2.2.18,6.33,6.33,0,0,0-1.84.18,26.7,26.7,0,0,0-7.7,1.66,61.86,61.86,0,0,0-7.16,3.3,42.93,42.93,0,0,0-6.6,4.58,54.45,54.45,0,0,0-5.5,5.87l-4.22-15.22h-13.2V550.16h17.6V502.08a55.52,55.52,0,0,1,2-15.59,30.33,30.33,0,0,1,5.69-11.18,25.94,25.94,0,0,1,9.17-7,30.38,30.38,0,0,1,12.47-2.57h4l1.15-17.61a2.81,2.81,0,0,0-1.28-.18Z" transform="translate(-355.28 -408.7)"/><rect x="876.26" width="18" height="16.87"/><rect x="876.26" y="39.61" width="18" height="101.85"/><path d="M1354.78,502a31.92,31.92,0,0,1-2,11.93,32.57,32.57,0,0,1-6.42,9.9,24.56,24.56,0,0,1-9.9,6.79,36.33,36.33,0,0,1-12.84,2.2,26.24,26.24,0,0,1-8.62-1.29,23.43,23.43,0,0,1-7-4,16.37,16.37,0,0,1-4.77-7.34,41,41,0,0,1-1.47-11.55V448.52h-18.52v60c0,7.52.94,14.13,2.94,19.63a32,32,0,0,0,9,13.57,33.54,33.54,0,0,0,11.92,6.79,42.84,42.84,0,0,0,13.94,2.2h2.39a10.58,10.58,0,0,0,2.38-.19,33.53,33.53,0,0,0,8.81-1.65,37.43,37.43,0,0,0,7.88-3.48,28.23,28.23,0,0,0,6.6-4.95,45.83,45.83,0,0,0,5.32-6.61v.55l4.22,15.78H1373c0-16.93,0-50.86.21-101.66h-18.38Z" transform="translate(-355.28 -408.7)"/><path d="M1561,470.1a31.62,31.62,0,0,0-9-13.39,39.4,39.4,0,0,0-13.75-7.52,44.28,44.28,0,0,0-12.11-1.65,42.08,42.08,0,0,0-4.77.18,44.16,44.16,0,0,0-9.9,1.65,91.86,91.86,0,0,0-9.17,3.31,35.68,35.68,0,0,0-8.44,5.13,37,37,0,0,0-7,7.15,41.74,41.74,0,0,0-6.42-8.25,33.47,33.47,0,0,0-8.62-5.68,31.78,31.78,0,0,0-8.07-2.57,47.79,47.79,0,0,0-9-.92h-2.38a11.82,11.82,0,0,0-2.38.18,36.36,36.36,0,0,0-9,1.84,39.69,39.69,0,0,0-7.89,3.48,28.79,28.79,0,0,0-6.6,5,45.26,45.26,0,0,0-5.32,6.41v-.36l-4.4-15.59h-14.12V550.16H1421V496.37a31.9,31.9,0,0,1,2-11.92,32.46,32.46,0,0,1,6.41-9.91,24.6,24.6,0,0,1,9.91-6.78,35.77,35.77,0,0,1,12.84-2.2,26.58,26.58,0,0,1,8.62,1.28,23.82,23.82,0,0,1,7,3.85,16.65,16.65,0,0,1,4.77,7.34,41.74,41.74,0,0,1,1.46,11.55v60.58h18.53v-54a30.25,30.25,0,0,1,2.2-11.73,36.9,36.9,0,0,1,6.42-9.91,26.24,26.24,0,0,1,9.9-6.6,35.28,35.28,0,0,1,12.66-2.2,26.28,26.28,0,0,1,8.62,1.28,23.82,23.82,0,0,1,7,3.85,16.56,16.56,0,0,1,4.77,7.34,41.81,41.81,0,0,1,1.46,11.56v60.15h18.53V489.77l.06-.41A54.45,54.45,0,0,0,1561,470.1Z" transform="translate(-355.28 -408.7)"/><path d="M702.29,656.72h-7.07V611.58H674.13v45.14h-7V605.25h35.19Z" transform="translate(-355.28 -408.7)"/><path d="M744,638.58H716.81a15.9,15.9,0,0,0,1.41,7,10.85,10.85,0,0,0,4.06,4.55,11.83,11.83,0,0,0,6.41,1.67,14.06,14.06,0,0,0,9.57-3.41l2.74,5.41a14.74,14.74,0,0,1-5.8,2.83,33.85,33.85,0,0,1-7.81.76,16.51,16.51,0,0,1-12.6-5.26q-4.93-5.25-4.94-13.79,0-9,5.19-14.51a16.4,16.4,0,0,1,12.42-5.53c5.21,0,9.35,1.46,12.45,4.37s4.64,6.84,4.64,11.76A19.9,19.9,0,0,1,744,638.58ZM727.74,624A10.62,10.62,0,0,0,717,633.69h20.81a9.43,9.43,0,0,0-2.74-7A10,10,0,0,0,727.74,624Z" transform="translate(-355.28 -408.7)"/><path d="M758.37,654.64v16.84h-6.72V619.06h6.72v3.1a12.37,12.37,0,0,1,9.14-3.83q8,0,12.44,5T784.42,638q0,8.65-4.52,14t-13,5.38a17.24,17.24,0,0,1-5-.84C760.05,656,758.88,655.37,758.37,654.64Zm0-27.45v22a6.48,6.48,0,0,0,2.74,1.84,9.77,9.77,0,0,0,3.86.83q12.45,0,12.45-14.13,0-7.32-3-10.53T765,624a8.21,8.21,0,0,0-3.48,1.06A10.47,10.47,0,0,0,758.37,627.19Z" transform="translate(-355.28 -408.7)"/><path d="M820.21,622.16,817,626.83a11.79,11.79,0,0,0-3.71-2,14.56,14.56,0,0,0-5-.9,10.67,10.67,0,0,0-8.68,3.87q-3.2,3.87-3.2,10.48,0,6.39,3.2,10t9.17,3.57a14.94,14.94,0,0,0,9.11-3.55l2.57,5.62q-5.25,3.52-13.33,3.52a16.86,16.86,0,0,1-12.67-5.19q-5-5.18-5-13.93,0-9.25,5.29-14.61t14.22-5.36a18.37,18.37,0,0,1,6.43,1.26A16.35,16.35,0,0,1,820.21,622.16Z" transform="translate(-355.28 -408.7)"/><path d="M842.18,618.33q8.09,0,12.53,5.22t4.45,14.22q0,9.24-4.64,14.45a15.73,15.73,0,0,1-12.34,5.2q-8.05,0-12.55-5.27t-4.5-14.38q0-8.68,4.71-14.06A15.6,15.6,0,0,1,842.18,618.33Zm0,33.64a8.35,8.35,0,0,0,7.33-3.9q2.61-3.9,2.62-10.3,0-14-10-14a8.58,8.58,0,0,0-7.4,3.8q-2.7,3.79-2.69,10.16Q832.09,652,842.18,652Z" transform="translate(-355.28 -408.7)"/><path d="M897,656.72h-6.72v-17H872.94v17h-6.72V619.06h6.72v15.12h17.33V619.06H897Z" transform="translate(-355.28 -408.7)"/><path d="M927.36,652.39q-4.08,5-12.23,5a10.52,10.52,0,0,1-7.7-3.23,10.84,10.84,0,0,1-3.24-8,11.91,11.91,0,0,1,5-9.67q5-3.94,12.78-3.94a16.59,16.59,0,0,1,4.85.84q0-9.13-8.23-9.14-6.15,0-9.63,3.41l-2.81-5.55a16.22,16.22,0,0,1,5.11-2.64,20.3,20.3,0,0,1,6.63-1.19q7.95,0,11.74,3.62t3.8,12v13.47q0,4.95,3,6.61v3.3c-2.9,0-5-.43-6.31-1.3A6.64,6.64,0,0,1,927.36,652.39Zm-.56-14.16a31.13,31.13,0,0,0-4.47-.74,12.62,12.62,0,0,0-8.26,2.63,7.82,7.82,0,0,0-3.2,6.16q0,5.9,6.93,5.9,5,0,9-4.81Z" transform="translate(-355.28 -408.7)"/><path d="M974.68,656.72H968V624.37H957.91a77.94,77.94,0,0,1-1.62,14.68,39.75,39.75,0,0,1-3.9,11.11q-2.46,4.38-5.34,5.68a16.71,16.71,0,0,1-6.93,1.3V651q6.3,0,8.92-9.75a72.36,72.36,0,0,0,2.61-18.69v-3.52h23Z" transform="translate(-355.28 -408.7)"/><path d="M990.61,633a71.52,71.52,0,0,1,7.84-.56q7.2,0,11,3.13c2.52,2.08,3.78,5.17,3.78,9.24a11.29,11.29,0,0,1-3.65,8.34q-3.66,3.54-11.32,3.55H984V619.06h6.65Zm0,18.21c1.64.14,4.27.21,7.91.21a9,9,0,0,0,5.85-1.74,6.1,6.1,0,0,0,2.13-5q0-7-8.33-7a61.94,61.94,0,0,0-7.56.6Z" transform="translate(-355.28 -408.7)"/><path d="M1051.15,656.72h-6.72v-17H1027.1v17h-6.72V619.06h6.72v15.12h17.33V619.06h6.72Z" transform="translate(-355.28 -408.7)"/><path d="M1067.21,632.88a44.64,44.64,0,0,1,6.4-.42q7.25,0,11,3.13c2.53,2.08,3.8,5.17,3.8,9.24a11.52,11.52,0,0,1-1.73,6,10.92,10.92,0,0,1-5,4.42,19.94,19.94,0,0,1-8.23,1.51h-12.83V619.06h6.57Zm0,18.42a63.65,63.65,0,0,0,6.4.25,9.26,9.26,0,0,0,6-1.79,6.14,6.14,0,0,0,2.23-5.07,6.2,6.2,0,0,0-2.34-5.3,10,10,0,0,0-6.2-1.76,57.45,57.45,0,0,0-6,.45Zm33.26,5.42h-6.57V619.06h6.57Z" transform="translate(-355.28 -408.7)"/><path d="M1141.64,638.58H1114.5a16,16,0,0,0,1.4,7,11,11,0,0,0,4.06,4.55,11.85,11.85,0,0,0,6.42,1.67,14,14,0,0,0,9.56-3.41l2.75,5.41a14.78,14.78,0,0,1-5.81,2.83,33.76,33.76,0,0,1-7.8.76,16.51,16.51,0,0,1-12.6-5.26q-4.95-5.25-4.94-13.79,0-9,5.18-14.51a16.44,16.44,0,0,1,12.43-5.53q7.8,0,12.45,4.37t4.64,11.76A19.9,19.9,0,0,1,1141.64,638.58ZM1125.43,624a10.62,10.62,0,0,0-10.72,9.74h20.81a9.43,9.43,0,0,0-2.74-7A10,10,0,0,0,1125.43,624Z" transform="translate(-355.28 -408.7)"/><path d="M1201.79,656.72h-6.71v-17h-17.34v17H1171V619.06h6.71v15.12h17.34V619.06h6.71Z" transform="translate(-355.28 -408.7)"/><path d="M1232.17,652.39q-4.08,5-12.24,5a10.55,10.55,0,0,1-7.7-3.23,10.88,10.88,0,0,1-3.23-8,11.93,11.93,0,0,1,5-9.67q5-3.94,12.78-3.94a16.54,16.54,0,0,1,4.85.84q0-9.13-8.22-9.14-6.15,0-9.64,3.41l-2.81-5.55a16.29,16.29,0,0,1,5.12-2.64,20.2,20.2,0,0,1,6.62-1.19q7.95,0,11.75,3.62t3.79,12v13.47q0,4.95,3,6.61v3.3q-4.37,0-6.31-1.3A6.6,6.6,0,0,1,1232.17,652.39Zm-.57-14.16a31.31,31.31,0,0,0-4.46-.74,12.58,12.58,0,0,0-8.26,2.63,7.79,7.79,0,0,0-3.2,6.16q0,5.9,6.92,5.9,5,0,9-4.81Z" transform="translate(-355.28 -408.7)"/><path d="M1276.67,622.16l-3.23,4.67a11.79,11.79,0,0,0-3.71-2,14.56,14.56,0,0,0-5-.9,10.66,10.66,0,0,0-8.68,3.87q-3.21,3.87-3.2,10.48,0,6.39,3.2,10t9.17,3.57a14.94,14.94,0,0,0,9.11-3.55l2.56,5.62q-5.24,3.52-13.32,3.52a16.86,16.86,0,0,1-12.67-5.19q-5-5.18-5-13.93,0-9.25,5.29-14.61t14.22-5.36a18.37,18.37,0,0,1,6.43,1.26A16.14,16.14,0,0,1,1276.67,622.16Z" transform="translate(-355.28 -408.7)"/><path d="M1309.72,624.69h-10.79v32h-6.68v-32h-10.83v-5.63h28.3Z" transform="translate(-355.28 -408.7)"/><path d="M1323.36,654.64v16.84h-6.71V619.06h6.71v3.1a12.38,12.38,0,0,1,9.14-3.83q8,0,12.45,5t4.46,14.64q0,8.65-4.52,14t-13,5.38a17.23,17.23,0,0,1-5-.84A6.81,6.81,0,0,1,1323.36,654.64Zm0-27.45v22a6.61,6.61,0,0,0,2.74,1.84,9.85,9.85,0,0,0,3.87.83q12.45,0,12.45-14.13,0-7.32-3-10.53T1330,624a8.21,8.21,0,0,0-3.48,1.06A10.54,10.54,0,0,0,1323.36,627.19Z" transform="translate(-355.28 -408.7)"/><path d="M1371.38,618.33c5.4,0,9.57,1.74,12.54,5.22s4.45,8.22,4.45,14.22q0,9.24-4.65,14.45t-12.34,5.2q-8,0-12.55-5.27t-4.5-14.38q0-8.68,4.71-14.06A15.63,15.63,0,0,1,1371.38,618.33Zm0,33.64a8.32,8.32,0,0,0,7.33-3.9q2.63-3.9,2.62-10.3,0-14-9.95-14a8.59,8.59,0,0,0-7.4,3.8q-2.68,3.79-2.69,10.16Q1361.29,652,1371.38,652Z" transform="translate(-355.28 -408.7)"/><path d="M1427.11,656.72h-6.68V631l-23.49,26.79h-1.51V619.06h6.72v25.77l23.45-26.78h1.51Zm-2.57-55.87q-2.36,10.8-12.62,10.8t-12.59-10.8l6-1.37q1.31,7.21,6.61,7.21,5.94,0,6.93-7.14Z" transform="translate(-355.28 -408.7)"/><path d="M1466.27,656.93a18.47,18.47,0,0,1-2.46.14q-6.61,0-7.56-6.61-.81-5.62-3.79-8.24t-8.58-2.62h-.57v17.12h-6.71V619.06h6.71v15.05h.92q5.24,0,8-2.16a10.35,10.35,0,0,0,3.62-6.7q1.13-6.54,7.42-6.54a19.41,19.41,0,0,1,2.32.14v5.77a13.53,13.53,0,0,0-1.76-.07c-1.05,0-1.72.71-2,2.14a12.48,12.48,0,0,1-9.35,10.16q8.12,2.79,10,12.38c.3,1.33,1,2,2,2a6.77,6.77,0,0,0,1.79-.14Z" transform="translate(-355.28 -408.7)"/><path d="M1505.44,656.72h-6.68V631l-23.49,26.79h-1.51V619.06h6.71v25.77l23.45-26.78h1.52Z" transform="translate(-355.28 -408.7)"/></svg>