<svg xmlns="http://www.w3.org/2000/svg" xmlns:xlink="http://www.w3.org/1999/xlink">
<symbol viewBox="0 0 16 16" id="box-arrow-up-right"><path fill-rule="evenodd" d="M8.636 3.5a.5.5 0 0 0-.5-.5H1.5A1.5 1.5 0 0 0 0 4.5v10A1.5 1.5 0 0 0 1.5 16h10a1.5 1.5 0 0 0 1.5-1.5V7.864a.5.5 0 0 0-1 0V14.5a.5.5 0 0 1-.5.5h-10a.5.5 0 0 1-.5-.5v-10a.5.5 0 0 1 .5-.5h6.636a.5.5 0 0 0 .5-.5z"/><path fill-rule="evenodd" d="M16 .5a.5.5 0 0 0-.5-.5h-5a.5.5 0 0 0 0 1h3.793L6.146 9.146a.5.5 0 1 0 .708.708L15 1.707V5.5a.5.5 0 0 0 1 0v-5z"/></symbol>
<symbol viewBox="0 0 16 16" id="envelope"><path d="M0 4a2 2 0 0 1 2-2h12a2 2 0 0 1 2 2v8a2 2 0 0 1-2 2H2a2 2 0 0 1-2-2V4Zm2-1a1 1 0 0 0-1 1v.217l7 4.2 7-4.2V4a1 1 0 0 0-1-1H2Zm13 2.383-4.708 2.825L15 11.105V5.383Zm-.034 6.876-5.64-3.471L8 9.583l-1.326-.795-5.64 3.47A1 1 0 0 0 2 13h12a1 1 0 0 0 .966-.741ZM1 11.105l4.708-2.897L1 5.383v5.722Z"/></symbol>
<symbol viewBox="0 0 16 16" id="check"><path d="M10.97 4.97a.75.75 0 0 1 1.07 1.05l-3.99 4.99a.75.75 0 0 1-1.08.02L4.324 8.384a.75.75 0 1 1 1.06-1.06l2.094 2.093 3.473-4.425a.267.267 0 0 1 .02-.022z"/></symbol>
<symbol viewBox="0 0 16 16" id="plus"><path d="M8 4a.5.5 0 0 1 .5.5v3h3a.5.5 0 0 1 0 1h-3v3a.5.5 0 0 1-1 0v-3h-3a.5.5 0 0 1 0-1h3v-3A.5.5 0 0 1 8 4z"/></symbol>
<symbol viewBox="0 0 16 16" id="trophy"><path d="M2.5.5A.5.5 0 0 1 3 0h10a.5.5 0 0 1 .5.5c0 .538-.012 1.05-.034 1.536a3 3 0 1 1-1.133 5.89c-.79 1.865-1.878 2.777-2.833 3.011v2.173l1.425.356c.194.048.377.135.537.255L13.3 15.1a.5.5 0 0 1-.3.9H3a.5.5 0 0 1-.3-.9l1.838-1.379c.16-.12.343-.207.537-.255L6.5 13.11v-2.173c-.955-.234-2.043-1.146-2.833-3.012a3 3 0 1 1-1.132-5.89A33.076 33.076 0 0 1 2.5.5zm.099 2.54a2 2 0 0 0 .72 3.935c-.333-1.05-.588-2.346-.72-3.935zm10.083 3.935a2 2 0 0 0 .72-3.935c-.133 1.59-.388 2.885-.72 3.935zM3.504 1c.007.517.026 1.006.056 1.469.13 2.028.457 3.546.87 4.667C5.294 9.48 6.484 10 7 10a.5.5 0 0 1 .5.5v2.61a1 1 0 0 1-.757.97l-1.426.356a.5.5 0 0 0-.179.085L4.5 15h7l-.638-.479a.501.501 0 0 0-.18-.085l-1.425-.356a1 1 0 0 1-.757-.97V10.5A.5.5 0 0 1 9 10c.516 0 1.706-.52 2.57-2.864.413-1.12.74-2.64.87-4.667.03-.463.049-.952.056-1.469H3.504z"/></symbol>
<symbol viewBox="0 0 16 16" id="bell"><path d="M8 16a2 2 0 0 0 2-2H6a2 2 0 0 0 2 2zM8 1.918l-.797.161A4.002 4.002 0 0 0 4 6c0 .628-.134 2.197-.459 3.742-.16.767-.376 1.566-.663 2.258h10.244c-.287-.692-.502-1.49-.663-2.258C12.134 8.197 12 6.628 12 6a4.002 4.002 0 0 0-3.203-3.92L8 1.917zM14.22 12c.223.447.481.801.78 1H1c.299-.199.557-.553.78-1C2.68 10.2 3 6.88 3 6c0-2.42 1.72-4.44 4.005-4.901a1 1 0 1 1 1.99 0A5.002 5.002 0 0 1 13 6c0 .88.32 4.2 1.22 6z"/></symbol>
<symbol viewBox="0 0 16 16" id="house"><path d="M8.707 1.5a1 1 0 0 0-1.414 0L.646 8.146a.5.5 0 0 0 .708.708L2 8.207V13.5A1.5 1.5 0 0 0 3.5 15h9a1.5 1.5 0 0 0 1.5-1.5V8.207l.646.647a.5.5 0 0 0 .708-.708L13 5.793V2.5a.5.5 0 0 0-.5-.5h-1a.5.5 0 0 0-.5.5v1.293L8.707 1.5ZM13 7.207V13.5a.5.5 0 0 1-.5.5h-9a.5.5 0 0 1-.5-.5V7.207l5-5 5 5Z"/></symbol>
<symbol viewBox="0 0 16 16" id="search"><path d="M11.742 10.344a6.5 6.5 0 1 0-1.397 1.398h-.001c.03.04.062.078.098.115l3.85 3.85a1 1 0 0 0 1.415-1.414l-3.85-3.85a1.007 1.007 0 0 0-.115-.1zM12 6.5a5.5 5.5 0 1 1-11 0 5.5 5.5 0 0 1 11 0z"/></symbol>
<symbol viewBox="0 0 16 16" id="person"><path d="M8 8a3 3 0 1 0 0-6 3 3 0 0 0 0 6Zm2-3a2 2 0 1 1-4 0 2 2 0 0 1 4 0Zm4 8c0 1-1 1-1 1H3s-1 0-1-1 1-4 6-4 6 3 6 4Zm-1-.004c-.001-.246-.154-.986-.832-1.664C11.516 10.68 10.289 10 8 10c-2.29 0-3.516.68-4.168 1.332-.678.678-.83 1.418-.832 1.664h10Z"/></symbol>
<symbol viewBox="0 0 16 16" id="chevron-left"><path fill-rule="evenodd" d="M11.354 1.646a.5.5 0 0 1 0 .708L5.707 8l5.647 5.646a.5.5 0 0 1-.708.708l-6-6a.5.5 0 0 1 0-.708l6-6a.5.5 0 0 1 .708 0z"/></symbol>
<symbol viewBox="0 0 16 16" id="cone-striped"><path d="m9.97 4.88.953 3.811C10.159 8.878 9.14 9 8 9c-1.14 0-2.158-.122-2.923-.309L6.03 4.88C6.635 4.957 7.3 5 8 5s1.365-.043 1.97-.12zm-.245-.978L8.97.88C8.718-.13 7.282-.13 7.03.88L6.275 3.9C6.8 3.965 7.382 4 8 4c.618 0 1.2-.036 1.725-.098zm4.396 8.613a.5.5 0 0 1 .037.96l-6 2a.5.5 0 0 1-.316 0l-6-2a.5.5 0 0 1 .037-.96l2.391-.598.565-2.257c.862.212 1.964.339 3.165.339s2.303-.127 3.165-.339l.565 2.257 2.391.598z"/></symbol>
<symbol viewBox="0 0 16 16" id="three-dots"><path d="M3 9.5a1.5 1.5 0 1 1 0-3 1.5 1.5 0 0 1 0 3zm5 0a1.5 1.5 0 1 1 0-3 1.5 1.5 0 0 1 0 3zm5 0a1.5 1.5 0 1 1 0-3 1.5 1.5 0 0 1 0 3z"/></symbol>
<symbol viewBox="0 0 16 16" id="send"><path d="M15.854.146a.5.5 0 0 1 .11.54l-5.819 14.547a.75.75 0 0 1-1.329.124l-3.178-4.995L.643 7.184a.75.75 0 0 1 .124-1.33L15.314.037a.5.5 0 0 1 .54.11ZM6.636 10.07l2.761 4.338L14.13 2.576 6.636 10.07Zm6.787-8.201L1.591 6.602l4.339 2.76 7.494-7.493Z"/></symbol>
<symbol viewBox="0 0 16 16" id="chevron-down"><path fill-rule="evenodd" d="M1.646 4.646a.5.5 0 0 1 .708 0L8 10.293l5.646-5.647a.5.5 0 0 1 .708.708l-6 6a.5.5 0 0 1-.708 0l-6-6a.5.5 0 0 1 0-.708z"/></symbol>
<symbol viewBox="0 0 16 16" id="chevron-right"><path fill-rule="evenodd" d="M4.646 1.646a.5.5 0 0 1 .708 0l6 6a.5.5 0 0 1 0 .708l-6 6a.5.5 0 0 1-.708-.708L10.293 8 4.646 2.354a.5.5 0 0 1 0-.708z"/></symbol>
<symbol viewBox="0 0 16 16" id="question-circle"><path d="M8 15A7 7 0 1 1 8 1a7 7 0 0 1 0 14zm0 1A8 8 0 1 0 8 0a8 8 0 0 0 0 16z"/><path d="M5.255 5.786a.237.237 0 0 0 .241.247h.825c.138 0 .248-.113.266-.25.09-.656.54-1.134 1.342-1.134.686 0 1.314.343 1.314 1.168 0 .635-.374.927-.965 1.371-.673.489-1.206 1.06-1.168 1.987l.003.217a.25.25 0 0 0 .25.246h.811a.25.25 0 0 0 .25-.25v-.105c0-.718.273-.927 1.01-1.486.609-.463 1.244-.977 1.244-2.056 0-1.511-1.276-2.241-2.673-2.241-1.267 0-2.655.59-2.75 2.286zm1.557 5.763c0 .533.425.927 1.01.927.609 0 1.028-.394 1.028-.927 0-.552-.42-.94-1.029-.94-.584 0-1.009.388-1.009.94z"/></symbol>
<symbol viewBox="0 0 16 16" id="eye"><path d="M16 8s-3-5.5-8-5.5S0 8 0 8s3 5.5 8 5.5S16 8 16 8zM1.173 8a13.133 13.133 0 0 1 1.66-2.043C4.12 4.668 5.88 3.5 8 3.5c2.12 0 3.879 1.168 5.168 2.457A13.133 13.133 0 0 1 14.828 8c-.058.087-.122.183-.195.288-.335.48-.83 1.12-1.465 1.755C11.879 11.332 10.119 12.5 8 12.5c-2.12 0-3.879-1.168-5.168-2.457A13.134 13.134 0 0 1 1.172 8z"/><path d="M8 5.5a2.5 2.5 0 1 0 0 5 2.5 2.5 0 0 0 0-5zM4.5 8a3.5 3.5 0 1 1 7 0 3.5 3.5 0 0 1-7 0z"/></symbol>
<symbol viewBox="0 0 16 16" id="gear-wide-connected"><path d="M7.068.727c.243-.97 1.62-.97 1.864 0l.071.286a.96.96 0 0 0 1.622.434l.205-.211c.695-.719 1.888-.03 1.613.931l-.08.284a.96.96 0 0 0 1.187 1.187l.283-.081c.96-.275 1.65.918.931 1.613l-.211.205a.96.96 0 0 0 .434 1.622l.286.071c.97.243.97 1.62 0 1.864l-.286.071a.96.96 0 0 0-.434 1.622l.211.205c.719.695.03 1.888-.931 1.613l-.284-.08a.96.96 0 0 0-1.187 1.187l.081.283c.275.96-.918 1.65-1.613.931l-.205-.211a.96.96 0 0 0-1.622.434l-.071.286c-.243.97-1.62.97-1.864 0l-.071-.286a.96.96 0 0 0-1.622-.434l-.205.211c-.695.719-1.888.03-1.613-.931l.08-.284a.96.96 0 0 0-1.186-1.187l-.284.081c-.96.275-1.65-.918-.931-1.613l.211-.205a.96.96 0 0 0-.434-1.622l-.286-.071c-.97-.243-.97-1.62 0-1.864l.286-.071a.96.96 0 0 0 .434-1.622l-.211-.205c-.719-.695-.03-1.888.931-1.613l.284.08a.96.96 0 0 0 1.187-1.186l-.081-.284c-.275-.96.918-1.65 1.613-.931l.205.211a.96.96 0 0 0 1.622-.434l.071-.286zM12.973 8.5H8.25l-2.834 3.779A4.998 4.998 0 0 0 12.973 8.5zm0-1a4.998 4.998 0 0 0-7.557-3.779l2.834 3.78h4.723zM5.048 3.967c-.03.021-.058.043-.087.065l.087-.065zm-.431.355A4.984 4.984 0 0 0 3.002 8c0 1.455.622 2.765 1.615 3.678L7.375 8 4.617 4.322zm.344 7.646.087.065-.087-.065z"/></symbol>
<symbol viewBox="0 0 16 16" id="chevron-up"><path fill-rule="evenodd" d="M7.646 4.646a.5.5 0 0 1 .708 0l6 6a.5.5 0 0 1-.708.708L8 5.707l-5.646 5.647a.5.5 0 0 1-.708-.708l6-6z"/></symbol>
<symbol viewBox="0 0 16 16" id="link-45deg"><path d="M4.715 6.542 3.343 7.914a3 3 0 1 0 4.243 4.243l1.828-1.829A3 3 0 0 0 8.586 5.5L8 6.086a1.002 1.002 0 0 0-.154.199 2 2 0 0 1 .861 3.337L6.88 11.45a2 2 0 1 1-2.83-2.83l.793-.792a4.018 4.018 0 0 1-.128-1.287z"/><path d="M6.586 4.672A3 3 0 0 0 7.414 9.5l.775-.776a2 2 0 0 1-.896-3.346L9.12 3.55a2 2 0 1 1 2.83 2.83l-.793.792c.112.42.155.855.128 1.287l1.372-1.372a3 3 0 1 0-4.243-4.243L6.586 4.672z"/></symbol>
<symbol viewBox="0 0 16 16" id="x-lg"><path d="M2.146 2.854a.5.5 0 1 1 .708-.708L8 7.293l5.146-5.147a.5.5 0 0 1 .708.708L8.707 8l5.147 5.146a.5.5 0 0 1-.708.708L8 8.707l-5.146 5.147a.5.5 0 0 1-.708-.708L7.293 8 2.146 2.854Z"/></symbol>
<symbol viewBox="0 0 16 16" id="plus-circle-dotted"><path d="M8 0c-.176 0-.35.006-.523.017l.064.998a7.117 7.117 0 0 1 .918 0l.064-.998A8.113 8.113 0 0 0 8 0zM6.44.152c-.346.069-.684.16-1.012.27l.321.948c.287-.098.582-.177.884-.237L6.44.153zm4.132.271a7.946 7.946 0 0 0-1.011-.27l-.194.98c.302.06.597.14.884.237l.321-.947zm1.873.925a8 8 0 0 0-.906-.524l-.443.896c.275.136.54.29.793.459l.556-.831zM4.46.824c-.314.155-.616.33-.905.524l.556.83a7.07 7.07 0 0 1 .793-.458L4.46.824zM2.725 1.985c-.262.23-.51.478-.74.74l.752.66c.202-.23.418-.446.648-.648l-.66-.752zm11.29.74a8.058 8.058 0 0 0-.74-.74l-.66.752c.23.202.447.418.648.648l.752-.66zm1.161 1.735a7.98 7.98 0 0 0-.524-.905l-.83.556c.169.253.322.518.458.793l.896-.443zM1.348 3.555c-.194.289-.37.591-.524.906l.896.443c.136-.275.29-.54.459-.793l-.831-.556zM.423 5.428a7.945 7.945 0 0 0-.27 1.011l.98.194c.06-.302.14-.597.237-.884l-.947-.321zM15.848 6.44a7.943 7.943 0 0 0-.27-1.012l-.948.321c.098.287.177.582.237.884l.98-.194zM.017 7.477a8.113 8.113 0 0 0 0 1.046l.998-.064a7.117 7.117 0 0 1 0-.918l-.998-.064zM16 8a8.1 8.1 0 0 0-.017-.523l-.998.064a7.11 7.11 0 0 1 0 .918l.998.064A8.1 8.1 0 0 0 16 8zM.152 9.56c.069.346.16.684.27 1.012l.948-.321a6.944 6.944 0 0 1-.237-.884l-.98.194zm15.425 1.012c.112-.328.202-.666.27-1.011l-.98-.194c-.06.302-.14.597-.237.884l.947.321zM.824 11.54a8 8 0 0 0 .524.905l.83-.556a6.999 6.999 0 0 1-.458-.793l-.896.443zm13.828.905c.194-.289.37-.591.524-.906l-.896-.443c-.136.275-.29.54-.459.793l.831.556zm-12.667.83c.23.262.478.51.74.74l.66-.752a7.047 7.047 0 0 1-.648-.648l-.752.66zm11.29.74c.262-.23.51-.478.74-.74l-.752-.66c-.201.23-.418.447-.648.648l.66.752zm-1.735 1.161c.314-.155.616-.33.905-.524l-.556-.83a7.07 7.07 0 0 1-.793.458l.443.896zm-7.985-.524c.289.194.591.37.906.524l.443-.896a6.998 6.998 0 0 1-.793-.459l-.556.831zm1.873.925c.328.112.666.202 1.011.27l.194-.98a6.953 6.953 0 0 1-.884-.237l-.321.947zm4.132.271a7.944 7.944 0 0 0 1.012-.27l-.321-.948a6.954 6.954 0 0 1-.884.237l.194.98zm-2.083.135a8.1 8.1 0 0 0 1.046 0l-.064-.998a7.11 7.11 0 0 1-.918 0l-.064.998zM8.5 4.5a.5.5 0 0 0-1 0v3h-3a.5.5 0 0 0 0 1h3v3a.5.5 0 0 0 1 0v-3h3a.5.5 0 0 0 0-1h-3v-3z"/></symbol>
<symbol viewBox="0 0 16 16" id="telegram"><path d="M16 8A8 8 0 1 1 0 8a8 8 0 0 1 16 0zM8.287 5.906c-.778.324-2.334.994-4.666 2.01-.378.15-.577.298-.595.442-.03.243.275.339.69.47l.175.055c.408.133.958.288 1.243.294.26.006.549-.1.868-.32 2.179-1.471 3.304-2.214 3.374-2.23.05-.012.12-.026.166.016.047.041.042.12.037.141-.03.129-1.227 1.241-1.846 1.817-.193.18-.33.307-.358.336a8.154 8.154 0 0 1-.188.186c-.38.366-.664.64.015 1.088.327.216.589.393.85.571.284.194.568.387.936.629.093.06.183.125.27.187.331.236.63.448.997.414.214-.02.435-.22.547-.82.265-1.417.786-4.486.906-5.751a1.426 1.426 0 0 0-.013-.315.337.337 0 0 0-.114-.217.526.526 0 0 0-.31-.093c-.3.005-.763.166-2.984 1.09z"/></symbol>
<symbol viewBox="0 0 16 16" id="plus-circle"><path d="M8 15A7 7 0 1 1 8 1a7 7 0 0 1 0 14zm0 1A8 8 0 1 0 8 0a8 8 0 0 0 0 16z"/><path d="M8 4a.5.5 0 0 1 .5.5v3h3a.5.5 0 0 1 0 1h-3v3a.5.5 0 0 1-1 0v-3h-3a.5.5 0 0 1 0-1h3v-3A.5.5 0 0 1 8 4z"/></symbol>
<symbol viewBox="0 0 16 16" id="plus"><path d="M8 4a.5.5 0 0 1 .5.5v3h3a.5.5 0 0 1 0 1h-3v3a.5.5 0 0 1-1 0v-3h-3a.5.5 0 0 1 0-1h3v-3A.5.5 0 0 1 8 4z"/></symbol>
<symbol viewBox="0 0 16 16" id="star-fill"><path d="M3.612 15.443c-.386.198-.824-.149-.746-.592l.83-4.73L.173 6.765c-.329-.314-.158-.888.283-.95l4.898-.696L7.538.792c.197-.39.73-.39.927 0l2.184 4.327 4.898.696c.441.062.612.636.282.95l-3.522 3.356.83 4.73c.078.443-.36.79-.746.592L8 13.187l-4.389 2.256z"/></symbol>
<symbol viewBox="0 0 16 16" id="star"><path d="M2.866 14.85c-.078.444.36.791.746.593l4.39-2.256 4.389 2.256c.386.198.824-.149.746-.592l-.83-4.73 3.522-3.356c.33-.314.16-.888-.282-.95l-4.898-.696L8.465.792a.513.513 0 0 0-.927 0L5.354 5.12l-4.898.696c-.441.062-.612.636-.283.95l3.523 3.356-.83 4.73zm4.905-2.767-3.686 1.894.694-3.957a.565.565 0 0 0-.163-.505L1.71 6.745l4.052-.576a.525.525 0 0 0 .393-.288L8 2.223l1.847 3.658a.525.525 0 0 0 .393.288l4.052.575-2.906 2.77a.565.565 0 0 0-.163.506l.694 3.957-3.686-1.894a.503.503 0 0 0-.461 0z"/></symbol>
<symbol viewBox="0 0 16 16" id="heart"><path d="m8 2.748-.717-.737C5.6.281 2.514.878 1.4 3.053c-.523 1.023-.641 2.5.314 4.385.92 1.815 2.834 3.989 6.286 6.357 3.452-2.368 5.365-4.542 6.286-6.357.955-1.886.838-3.362.314-4.385C13.486.878 10.4.28 8.717 2.01L8 2.748zM8 15C-7.333 4.868 3.279-3.04 7.824 1.143c.06.055.119.112.176.171a3.12 3.12 0 0 1 .176-.17C12.72-3.042 23.333 4.867 8 15z"/></symbol>
<symbol viewBox="0 0 16 16" id="chat-square"><path d="M14 1a1 1 0 0 1 1 1v8a1 1 0 0 1-1 1h-2.5a2 2 0 0 0-1.6.8L8 14.333 6.1 11.8a2 2 0 0 0-1.6-.8H2a1 1 0 0 1-1-1V2a1 1 0 0 1 1-1h12zM2 0a2 2 0 0 0-2 2v8a2 2 0 0 0 2 2h2.5a1 1 0 0 1 .8.4l1.9 2.533a1 1 0 0 0 1.6 0l1.9-2.533a1 1 0 0 1 .8-.4H14a2 2 0 0 0 2-2V2a2 2 0 0 0-2-2H2z"/></symbol>
<symbol viewBox="0 0 16 16" id="send"><path d="M15.854.146a.5.5 0 0 1 .11.54l-5.819 14.547a.75.75 0 0 1-1.329.124l-3.178-4.995L.643 7.184a.75.75 0 0 1 .124-1.33L15.314.037a.5.5 0 0 1 .54.11ZM6.636 10.07l2.761 4.338L14.13 2.576 6.636 10.07Zm6.787-8.201L1.591 6.602l4.339 2.76 7.494-7.493Z"/></symbol>
<symbol viewBox="0 0 16 16" id="box-arrow-in-right"><path fill-rule="evenodd" d="M6 3.5a.5.5 0 0 1 .5-.5h8a.5.5 0 0 1 .5.5v9a.5.5 0 0 1-.5.5h-8a.5.5 0 0 1-.5-.5v-2a.5.5 0 0 0-1 0v2A1.5 1.5 0 0 0 6.5 14h8a1.5 1.5 0 0 0 1.5-1.5v-9A1.5 1.5 0 0 0 14.5 2h-8A1.5 1.5 0 0 0 5 3.5v2a.5.5 0 0 0 1 0v-2z"/><path fill-rule="evenodd" d="M11.854 8.354a.5.5 0 0 0 0-.708l-3-3a.5.5 0 1 0-.708.708L10.293 7.5H1.5a.5.5 0 0 0 0 1h8.793l-2.147 2.146a.5.5 0 0 0 .708.708l3-3z"/></symbol>
<symbol viewBox="0 0 16 16" id="person-fill"><path d="M3 14s-1 0-1-1 1-4 6-4 6 3 6 4-1 1-1 1H3Zm5-6a3 3 0 1 0 0-6 3 3 0 0 0 0 6Z"/></symbol>
<symbol viewBox="0 0 16 16" id="plus-circle-fill"><path d="M16 8A8 8 0 1 1 0 8a8 8 0 0 1 16 0zM8.5 4.5a.5.5 0 0 0-1 0v3h-3a.5.5 0 0 0 0 1h3v3a.5.5 0 0 0 1 0v-3h3a.5.5 0 0 0 0-1h-3v-3z"/></symbol>
<symbol viewBox="0 0 16 16" id="search-heart"><path d="M6.5 4.482c1.664-1.673 5.825 1.254 0 5.018-5.825-3.764-1.664-6.69 0-5.018Z"/><path d="M13 6.5a6.471 6.471 0 0 1-1.258 3.844c.04.03.078.062.115.098l3.85 3.85a1 1 0 0 1-1.414 1.415l-3.85-3.85a1.007 1.007 0 0 1-.1-.115h.002A6.5 6.5 0 1 1 13 6.5ZM6.5 12a5.5 5.5 0 1 0 0-11 5.5 5.5 0 0 0 0 11Z"/></symbol>
<symbol viewBox="0 0 16 16" id="house-fill"><path d="M8.707 1.5a1 1 0 0 0-1.414 0L.646 8.146a.5.5 0 0 0 .708.708L8 2.207l6.646 6.647a.5.5 0 0 0 .708-.708L13 5.793V2.5a.5.5 0 0 0-.5-.5h-1a.5.5 0 0 0-.5.5v1.293L8.707 1.5Z"/><path d="m8 3.293 6 6V13.5a1.5 1.5 0 0 1-1.5 1.5h-9A1.5 1.5 0 0 1 2 13.5V9.293l6-6Z"/></symbol>
<symbol viewBox="0 0 16 16" id="bell-fill"><path d="M8 16a2 2 0 0 0 2-2H6a2 2 0 0 0 2 2zm.995-14.901a1 1 0 1 0-1.99 0A5.002 5.002 0 0 0 3 6c0 1.098-.5 6-2 7h14c-1.5-1-2-5.902-2-7 0-2.42-1.72-4.44-4.005-4.901z"/></symbol>
<symbol viewBox="0 0 16 16" id="trophy-fill"><path d="M2.5.5A.5.5 0 0 1 3 0h10a.5.5 0 0 1 .5.5c0 .538-.012 1.05-.034 1.536a3 3 0 1 1-1.133 5.89c-.79 1.865-1.878 2.777-2.833 3.011v2.173l1.425.356c.194.048.377.135.537.255L13.3 15.1a.5.5 0 0 1-.3.9H3a.5.5 0 0 1-.3-.9l1.838-1.379c.16-.12.343-.207.537-.255L6.5 13.11v-2.173c-.955-.234-2.043-1.146-2.833-3.012a3 3 0 1 1-1.132-5.89A33.076 33.076 0 0 1 2.5.5zm.099 2.54a2 2 0 0 0 .72 3.935c-.333-1.05-.588-2.346-.72-3.935zm10.083 3.935a2 2 0 0 0 .72-3.935c-.133 1.59-.388 2.885-.72 3.935z"/></symbol>
</svg>
