<svg width="32" height="32" viewBox="0 0 32 32" fill="none" xmlns="http://www.w3.org/2000/svg">
<g clip-path="url(#clip0_7_8)">
<mask id="mask0_7_8" style="mask-type:luminance" maskUnits="userSpaceOnUse" x="0" y="0" width="32" height="32">
<path d="M32 0H0V32H32V0Z" fill="white"/>
</mask>
<g mask="url(#mask0_7_8)">
<path d="M32 0H0V32H32V0Z" fill="#8D77FE"/>
<path d="M8.22723 19.584C8.22723 16.8533 9.9659 15.3067 13.4433 14.944L19.7793 14.336C19.6299 11.4347 18.1366 9.984 15.2993 9.984C14.0193 9.984 12.9526 10.304 12.0993 10.944C11.2673 11.584 10.8513 12.608 10.8513 14.016H8.29123C8.29123 12.288 8.92056 10.816 10.1793 9.6C11.4379 8.384 13.1446 7.776 15.2993 7.776C17.4966 7.776 19.2246 8.43733 20.4833 9.76C21.7633 11.0827 22.4033 12.8213 22.4033 14.976V21.76H24.7393V24H21.9233C20.6646 24 20.0353 23.3813 20.0353 22.144V21.28L20.4513 19.616H19.6833C18.8939 22.752 16.8459 24.32 13.5393 24.32C12.6646 24.32 11.8859 24.2133 11.2033 24C10.5419 23.7653 10.0299 23.488 9.66723 23.168C9.30456 22.8267 9.0059 22.432 8.77123 21.984C8.53656 21.5147 8.38723 21.0987 8.32323 20.736C8.25923 20.352 8.22723 19.968 8.22723 19.584ZM10.8513 19.264C10.8513 20.16 11.1179 20.8533 11.6513 21.344C12.1846 21.8347 12.9206 22.08 13.8593 22.08C15.6299 22.08 17.0593 21.536 18.1473 20.448C19.2353 19.36 19.7793 17.9733 19.7793 16.288L13.8913 16.896C12.8459 17.0027 12.0779 17.2373 11.5873 17.6C11.0966 17.9413 10.8513 18.496 10.8513 19.264Z" fill="white"/>
</g>
</g>
<defs>
<clipPath id="clip0_7_8">
<rect width="32" height="32" fill="white"/>
</clipPath>
</defs>
</svg>
