<svg width="559" height="169" viewBox="0 0 559 169" fill="none" xmlns="http://www.w3.org/2000/svg">
<path d="M0.194336 120.288C0.194336 92.64 17.8212 76.98 53.0749 73.308L117.31 67.152C115.796 37.776 100.657 23.088 71.8913 23.088C58.9145 23.088 48.1005 26.328 39.4492 32.808C31.0143 39.288 26.7968 49.656 26.7968 63.912H0.843178C0.843178 46.416 7.22346 31.512 19.984 19.2C32.7445 6.888 50.047 0.732002 71.8913 0.732002C94.1682 0.732002 111.687 7.428 124.448 20.82C137.424 34.212 143.913 51.816 143.913 73.632V142.32H167.596V165H139.046C126.286 165 119.906 158.736 119.906 146.208V137.46L124.123 120.612H116.337C108.335 152.364 87.5717 168.24 54.0482 168.24C45.1807 168.24 37.2864 167.16 30.3654 165C23.6607 162.624 18.47 159.816 14.7932 156.576C11.1165 153.12 8.08858 149.124 5.70949 144.588C3.33041 139.836 1.81644 135.624 1.1676 131.952C0.518757 128.064 0.194336 124.176 0.194336 120.288ZM26.7968 117.048C26.7968 126.12 29.5003 133.14 34.9073 138.108C40.3144 143.076 47.776 145.56 57.2924 145.56C75.2437 145.56 89.7345 140.052 100.765 129.036C111.795 118.02 117.31 103.98 117.31 86.916L57.6168 93.072C47.019 94.152 39.2329 96.528 34.2585 100.2C29.284 103.656 26.7968 109.272 26.7968 117.048ZM332.675 165H301.53L244.108 95.016C241.513 95.664 238.809 95.988 235.998 95.988H224.643V165H198.041V3.972H224.643V72.336H237.944L279.794 15.96C285.633 7.968 293.528 3.972 303.477 3.972H328.781V26.652H302.503L262.924 79.788L332.675 165ZM367.22 165V3.972H425.616C446.811 3.972 462.816 6.78 473.63 12.396C484.66 18.012 490.175 28.056 490.175 42.528C490.175 54.408 487.039 62.94 480.767 68.124C474.711 73.092 467.466 75.9 459.031 76.548V84.324C487.796 84.756 502.179 97.5 502.179 122.556C502.179 150.852 480.659 165 437.619 165H367.22ZM393.174 70.716H425.616C440.323 70.716 450.38 69.42 455.787 66.828C461.41 64.02 464.222 57.324 464.222 46.74C464.222 37.884 461.302 32.052 455.462 29.244C449.623 26.436 439.674 25.032 425.616 25.032H393.174V70.716ZM393.174 143.94H437.619C451.678 143.94 461.626 142.428 467.466 139.404C473.306 136.164 476.225 129.468 476.225 119.316C476.225 108.516 473.197 101.28 467.142 97.608C461.302 93.72 451.461 91.776 437.619 91.776H393.174V143.94Z" fill="black"/>
<circle cx="543" cy="149" r="16" fill="black"/>
</svg>
