<svg width="576" height="208" viewBox="0 0 576 208" fill="none" xmlns="http://www.w3.org/2000/svg">
<path d="M433.683 135C465.183 135 487.383 110.1 487.383 70.2V3.89999H511.683V153H487.383V127.2L491.283 110.1H484.383C478.383 137.1 459.483 156 427.083 156C393.183 156 371.283 136.5 371.283 95.1V3.89999H395.883V91.8C395.883 123 407.883 135 433.683 135Z" fill="black"/>
<path d="M331.58 3.89999V207.6H306.98V131.1L311.18 114.3H303.98C297.68 137.4 277.88 156 243.98 156C200.48 156 172.58 122.7 172.58 78.6C172.58 34.2 200.48 0.899994 243.98 0.899994C277.88 0.899994 297.68 19.5 303.98 42.9H311.18L306.98 25.8V3.89999H331.58ZM306.98 78.6C306.98 38.7 281.78 21.9 250.88 21.9C219.98 21.9 197.18 39.3 197.18 78.6C197.18 117.6 219.98 135 250.88 135C281.78 135 306.98 118.2 306.98 78.6Z" fill="black"/>
<path d="M0.900024 111.6C0.900024 87.9 15 71.7 49.8 68.1L109.2 62.4C107.7 35.1 93 21.6 67.2 21.6C45.6 21.6 25.5 31.2 25.5 59.4H1.50003C1.50003 28.5 24.9 0.899994 67.2 0.899994C108.9 0.899994 133.8 28.5 133.8 68.4V132H155.7V153H129.3C117.9 153 111.6 146.7 111.6 135.6V127.5L115.5 111.9H108.3C102.6 134.7 86.7 156 50.7 156C7.50003 156 0.900024 127.2 0.900024 111.6ZM25.5 108.6C25.5 125.7 36.3 135 53.7 135C87.6 135 109.2 111.6 109.2 80.7L54 86.4C35.1 88.2 25.5 93.9 25.5 108.6Z" fill="black"/>
<circle cx="560" cy="137" r="16" fill="black"/>
</svg>
